<svg width="20" height="19" viewBox="0 0 20 19" fill="none" xmlns="http://www.w3.org/2000/svg">
<path d="M15.2714 13.4215C14.1797 14.5132 12.7951 15.8151 11.1157 17.3282C11.1156 17.3283 11.1155 17.3284 11.1153 17.3286L10 18.3285L8.88469 17.3286C8.88454 17.3284 8.8844 17.3283 8.88426 17.3282C7.20494 15.8151 5.82026 14.5132 4.72855 13.4215C3.63918 12.3321 2.78211 11.3634 2.15137 10.5144C1.52024 9.66476 1.09558 8.9052 0.859094 8.23389C0.619291 7.55316 0.5 6.8593 0.5 6.15002C0.5 4.70785 0.977907 3.52922 1.92855 2.57858C2.8792 1.62793 4.05783 1.15002 5.5 1.15002C6.29356 1.15002 7.04619 1.31733 7.76303 1.65287C8.48066 1.98878 9.09824 2.46115 9.61903 3.07385L10 3.52205L10.381 3.07385C10.9018 2.46115 11.5193 1.98878 12.237 1.65287C12.9538 1.31733 13.7064 1.15002 14.5 1.15002C15.9422 1.15002 17.1208 1.62793 18.0714 2.57858C19.0221 3.52922 19.5 4.70785 19.5 6.15002C19.5 6.8593 19.3807 7.55316 19.1409 8.23389C18.9044 8.9052 18.4798 9.66477 17.8486 10.5144C17.2179 11.3634 16.3608 12.3321 15.2714 13.4215ZM9.66638 16.6724L10 16.9713L10.3336 16.6724C11.9373 15.2358 13.2607 14.0005 14.3021 12.9675C15.3433 11.9347 16.1752 11.0275 16.7921 10.2478C17.4085 9.46877 17.857 8.75041 18.1151 8.09596C18.3694 7.45117 18.5 6.8016 18.5 6.15002C18.5 5.02634 18.1201 4.06304 17.3536 3.29647C16.587 2.52991 15.6237 2.15002 14.5 2.15002C13.6163 2.15002 12.7956 2.40099 12.0489 2.8957C11.4082 3.32013 10.9257 3.85513 10.6182 4.50002H9.38175C9.07431 3.85513 8.59179 3.32013 7.95115 2.8957C7.20442 2.40099 6.38371 2.15002 5.5 2.15002C4.37632 2.15002 3.41301 2.52991 2.64645 3.29647C1.87988 4.06304 1.5 5.02634 1.5 6.15002C1.5 6.8016 1.63058 7.45117 1.88486 8.09596C2.14296 8.75041 2.59154 9.46877 3.20789 10.2478C3.82483 11.0275 4.65666 11.9347 5.69788 12.9675C6.73932 14.0005 8.06273 15.2358 9.66638 16.6724Z" stroke="#C6492A"/>
</svg>
